<svg width="208" height="205" viewBox="0 0 208 205" fill="none" xmlns="http://www.w3.org/2000/svg">
<g opacity="0.7">
<g opacity="0.6">
<path opacity="0.6" d="M158.413 15.5149C132.168 0.243341 105.096 -3.7517 77.1963 3.52975H77.1842C74.4496 4.26076 71.7635 5.10149 69.1257 6.05192C69.1257 6.05192 66.1515 7.17078 65.5704 7.39922C64.156 7.96985 62.7768 8.5638 61.3977 9.18012C61.3874 9.19131 61.3754 9.20249 61.3633 9.1913C53.7069 12.683 46.5034 17.0947 39.9114 22.3289C39.7841 22.4389 39.6508 22.5416 39.512 22.6366C38.2021 23.6877 36.9217 24.7681 35.6708 25.8776C32.9688 28.2601 30.3966 30.7862 27.9652 33.445C25.6167 36.0029 23.3981 38.6736 21.3091 41.4572C21.2909 41.4915 21.2676 41.5229 21.2401 41.5504C21.1945 41.6063 21.1601 41.6753 21.1154 41.7369C17.5636 46.4946 14.4355 51.5552 11.7671 56.8605C11.7569 56.8717 11.757 56.8829 11.7448 56.9062C10.123 60.1077 8.67722 63.3956 7.41388 66.7552C-1.3449 90.749 -1.50448 114.771 6.93521 138.821C37.5444 222.998 158.698 227.596 196.997 148.465C198.045 146.297 199.022 144.086 199.926 141.834C199.929 141.815 199.933 141.796 199.938 141.777C200.291 140.909 201.305 138.182 201.374 137.942C201.922 136.424 202.423 134.894 202.879 133.342C203.597 131.011 204.212 128.64 204.749 126.243V126.231C209.472 105.244 207.548 83.3055 199.244 63.4642C190.939 43.6229 176.668 26.8652 158.413 15.5205V15.5149Z" fill="#3BB6D5"/>
<g opacity="0.6">
<path opacity="0.6" d="M140.024 91.3856C139.942 91.3222 139.942 91.3222 138.889 90.9791C138.85 90.9657 138.814 90.943 138.785 90.913C138.756 90.883 138.734 90.8465 138.722 90.8066C138.714 90.7749 138.705 90.7423 138.696 90.7133C138.69 90.6654 138.674 90.6194 138.648 90.5781C138.623 90.5369 138.59 90.5013 138.55 90.4737C138.435 90.4206 138.399 90.427 138.22 90.4532C137.628 90.7388 137.109 91.1552 136.701 91.6709C136.258 92.1725 136.173 92.3413 136.24 92.4364C136.233 92.5212 136.305 92.5539 136.41 92.5995C137.227 92.952 140.329 92.7861 140.384 92.2658C140.395 92.1019 140.369 91.9375 140.306 91.7855C140.244 91.6335 140.147 91.4979 140.024 91.3893V91.3856Z" fill="white"/>
<path opacity="0.6" d="M42.7036 20.285C40.6745 21.347 35.7504 27.0655 34.5417 29.2361C33.4932 28.0949 36.6285 26.1666 35.6703 25.8795C32.9683 28.262 30.3961 30.7881 27.9647 33.4468C27.8278 33.9382 27.4991 34.3718 27.5997 34.9191C28.1705 35.2165 28.5002 34.4529 29.0254 34.6002C29.5152 36.038 29.2414 36.3233 26.7114 39.0049C26.4069 39.3967 26.0715 39.7634 25.7085 40.1014C25.6395 40.1471 25.5222 40.0893 25.4346 40.0548C25.2977 40.01 24.9449 40.0669 24.1124 41.0375C24.0901 41.0599 22.4716 42.9546 22.9018 43.4227C23.5406 43.3294 23.426 42.0987 24.1784 42.3616C24.8629 42.5891 24.1897 43.3769 24.2353 43.8907C24.2474 43.9131 25.0901 46.2217 26.2532 45.5112C29.2972 43.6856 29.2861 43.1485 29.2619 42.3495C29.2172 40.7746 29.2059 40.3522 29.5477 39.9186C29.7631 39.6978 30.0422 39.5501 30.3458 39.4963C31.2351 39.2454 31.2351 39.2455 33.5258 37.0189C34.6544 35.9345 31.9642 35.2044 32.522 33.858C33.1273 32.4314 34.8705 31.8067 35.121 30.1284C35.1675 29.775 34.917 29.5587 34.6656 29.3527C36.5331 28.1046 38.1654 26.5358 39.4873 24.7186C39.3392 24.7979 39.1455 24.9051 38.9975 24.9806C39.897 23.1662 41.6411 22.0361 42.7474 20.4044C42.7303 20.3655 42.7157 20.3257 42.7036 20.285Z" fill="white"/>
<path opacity="0.6" d="M99.6218 62.7907C99.4151 62.194 98.5556 62.6042 98.3647 61.9702C98.1161 61.1236 97.0815 60.8355 96.8953 59.9348C96.7184 59.5329 96.4953 59.153 96.2305 58.8028C96.203 58.7773 96.174 58.7533 96.1438 58.731C95.7537 58.4364 95.357 58.1716 94.9789 57.8769C94.6305 57.5447 94.3036 57.1907 94.0002 56.8168C93.6734 56.4793 93.907 56.2667 94.3475 55.8294C94.6138 55.572 96.8441 53.3184 93.7386 53.6979C92.528 53.8461 92.4172 53.8341 92.1834 53.7427C92.1508 52.8672 93.2199 53.0368 93.5058 52.4373C93.7106 52.0065 93.3921 51.5124 93.6631 51.0844C93.6965 51.017 93.7509 50.9623 93.8181 50.9286C93.8853 50.895 93.9617 50.8842 94.0356 50.8979C94.07 50.8979 96.3235 50.7804 95.3309 49.6317C94.9947 49.6485 94.679 49.6811 94.3661 49.7026L94.206 49.8145L93.7897 50.2219C93.1543 50.2287 92.5289 50.3804 91.9609 50.6657C91.7523 51.075 92.1956 51.4247 92.0643 51.8238C91.5056 51.9021 90.7671 51.9934 90.2158 52.0643C89.7632 53.1832 89.7632 53.1832 89.6291 53.2242C89.1431 53.3799 88.8396 52.9221 88.4187 52.8671C88.0508 52.8205 87.7203 53.0172 87.3599 52.9958C83.1938 52.8028 84.9826 55.0611 85.9445 56.2751L86.8757 56.2984C86.8915 56.7897 89.4383 60.5679 89.4607 60.5958C90.5092 61.7856 90.5092 61.7856 91.5894 61.6429C91.6273 61.6361 91.6655 61.6314 91.7039 61.6289H91.7225C91.7288 61.6279 91.7348 61.6257 91.7402 61.6224C91.7533 61.6224 91.7579 61.6224 91.7644 61.6159H91.8026C91.811 61.6166 91.8194 61.6166 91.8278 61.6159C91.8333 61.6159 91.8398 61.6084 91.8491 61.6084C93.0457 61.5031 93.1686 61.6793 93.339 62.2089C92.7877 63.103 91.4348 62.6247 90.9459 63.6187C90.336 64.8457 90.2754 67.0826 91.011 66.8961C91.9608 66.6686 91.9609 66.6686 92.0242 66.7096C92.0381 67.214 92.041 67.3688 90.9459 68.2583C89.1431 69.7129 89.9215 69.9795 90.5501 70.0028L92.6826 69.4434C93.0311 69.2755 93.3379 69.0321 93.5811 68.731C93.8847 68.414 94.0114 68.3907 94.1157 68.3693C95.201 68.2488 96.2764 68.0516 97.3339 67.7791L99.1413 67.0136L101.103 65.1488C101.391 64.6574 101.01 64.2033 101.018 63.7287C101.03 62.9399 99.8602 63.4415 99.6218 62.7907Z" fill="white"/>
<path opacity="0.6" d="M89.5574 63.8815L89.3953 62.8177L88.8142 62.0149L88.182 61.2009L87.7965 59.6699C87.2522 59.4951 86.6763 59.4417 86.1092 59.5132C85.7255 59.6214 85.4173 60.1482 85.1193 60.4177L84.5829 61.1002C84.4088 61.3268 84.339 61.4116 83.8063 61.4927C83.527 61.5337 83.0567 61.6046 82.958 61.7921C82.8593 61.9795 82.8286 62.1576 83.0335 62.8121C83.1577 63.1713 83.1919 63.5555 83.1331 63.931C83.1331 64.1427 83.1331 64.3496 83.1499 64.5576L82.6386 64.661L82.2345 66.2135L82.458 67.0816L83.2541 67.5618C83.3191 67.7104 83.413 67.8446 83.5301 67.9566C83.6473 68.0686 83.7855 68.1563 83.9367 68.2145C84.524 68.2076 85.11 68.1577 85.6901 68.0652C85.7637 68.0419 85.7637 68.042 87.0935 66.5268C87.6522 66.2173 88.262 65.9972 88.8142 65.6718C88.9586 65.4984 89.1914 65.4079 89.2715 65.1776C89.3507 64.9771 89.2063 64.662 89.2547 64.4522L89.5574 63.8815Z" fill="white"/>
<path opacity="0.6" d="M23.714 38.8671C23.6683 38.923 23.6208 38.993 23.577 39.0536C23.3032 39.6475 19.6213 44.7263 19.45 44.8867C19.382 44.6806 19.2796 44.3617 20.4873 42.6722C20.6018 42.5239 20.9091 42.0559 21.2397 41.5534C17.6407 46.3677 14.4709 51.4891 11.7667 56.8588C13.1882 54.4179 14.7809 52.081 16.5326 49.8657C16.4525 52 14.6749 53.1758 13.7968 54.8644C13.9572 54.8612 14.1172 54.8459 14.2753 54.8187C14.3433 55.104 14.3434 55.104 14.1162 55.71C15.472 55.173 15.3462 53.5179 16.3509 52.7198C16.4767 53.0154 16.2831 53.3464 16.4442 53.6317C16.6034 53.6662 17.0028 53.7576 17.447 53.0844C18.1873 51.7483 16.702 47.697 18.4499 48.8037C19.2023 47.9935 19.3168 46.7832 20.1483 46.0308C20.2042 46.0466 20.2613 46.0581 20.3189 46.0653L25.187 38.8624C25.2317 38.7943 25.2801 38.7142 25.323 38.6349C25.3552 38.4543 25.3474 38.2688 25.3001 38.0916C25.2528 37.9143 25.1672 37.7497 25.0493 37.6093C24.5337 37.9466 24.0817 38.3724 23.714 38.8671Z" fill="white"/>
<path opacity="0.6" d="M78.8375 199.833C78.004 199.321 77.2148 198.74 76.4779 198.097C74.9508 197.024 72.3062 197.527 71.8844 194.913C71.1664 194.399 70.4018 193.955 69.6951 193.421C69.7528 193.318 69.8208 193.17 69.8814 193.067C69.3106 192.321 68.3644 192.143 67.6921 191.575C67.6129 191.495 67.4864 191.405 67.4072 191.336C67.464 191.256 67.5441 191.142 67.613 191.062C67.7377 191.085 67.8858 191.119 68.0115 191.142C67.5551 190.55 67.0602 189.989 66.53 189.463C66.598 189.383 66.678 189.277 66.7469 189.2C66.975 189.189 67.2591 189.166 67.4761 189.156C67.431 188.931 67.3501 188.715 67.2367 188.516C67.4425 188.469 67.7266 188.401 67.9315 188.368C67.9203 188.344 66.5979 186.529 65.9945 185.833C65.9256 185.753 65.8343 185.647 65.7766 185.583C65.9405 185.369 66.1415 185.187 66.3699 185.046C66.0505 184.373 66.0505 184.373 66.3019 183.825C64.6034 181.542 64.6033 181.542 65.5149 181.085C65.4693 181.04 65.5727 180.971 65.5951 180.925C66.0402 177.719 61.7529 175.834 63.2354 172.342C64.4096 171.909 65.5149 171.498 65.7086 169.774C65.7766 169.238 66.165 168.794 66.1417 168.233C66.1305 168.2 65.8222 165.505 65.7766 165.343C65.311 164.098 64.3407 163.14 63.8509 161.918C63.4971 161.039 63.4971 161.039 63.8509 160.537C64.6082 159.149 65.0187 157.598 65.0475 156.017C64.9116 155.036 63.0296 152.079 62.1524 151.623C60.9326 151.018 59.8953 150.093 58.5618 149.74C58.4422 149.702 58.3207 149.671 58.1977 149.647C56.8531 149.407 55.6322 150.32 54.2764 150.08C52.7027 149.806 51.5974 148.482 50.0134 148.208C49.8048 148.189 49.5953 148.182 49.3859 148.186C46.1379 148.208 46.1378 148.208 44.7811 145.903C44.4617 145.332 44.4618 145.332 44.2001 144.853C43.6414 143.769 42.604 143.107 41.8293 142.205C40.0051 142.205 38.1809 142.951 36.3576 142.228L28.2869 136.932C25.1208 139.443 25.1209 139.443 22.5759 138.085C21.6196 138.381 21.5842 138.738 21.4939 139.649C20.627 140.082 19.8177 140.493 18.9405 143.232C18.8828 143.107 18.8028 142.901 18.7348 142.766C18.5979 142.777 18.4154 142.8 18.2794 142.823C18.2338 142.971 18.1863 143.188 18.1416 143.336L18.1537 143.709C16.2382 143.185 16.2383 143.185 13.684 135.812C12.738 135.583 12.3393 135.617 11.6354 136.919C10.1194 135.835 10.1073 133.495 10.1073 132.228C9.21893 128.758 9.19655 128.701 8.58103 127.537C8.40969 128.084 8.40968 128.084 8.38734 130.128C8.26163 130.162 8.0792 130.208 7.94232 130.23C7.82778 130.15 7.65638 130.036 7.53253 129.956C7.14423 131.657 8.27756 133.126 8.3297 134.762C4.47644 135.333 3.09727 122.069 3.10938 121.922C3.24626 121.99 3.4055 122.059 3.53121 122.116C3.62796 121.432 3.7765 120.756 3.97543 120.095C4.11232 120.049 4.30601 119.993 4.44103 119.947C5.1357 120.693 5.13565 120.693 5.69436 120.643C5.67201 118.338 5.88807 118.189 6.36763 117.858C7.51589 118.629 8.53539 119.577 9.38843 120.666C9.69454 121.932 10.274 123.117 11.086 124.135C11.7136 123.93 11.7136 123.93 9.81027 116.717C9.15843 114.263 10.653 112.197 10.9947 109.911C11.3718 107.376 11.9753 104.866 12.2146 102.297C12.3077 101.385 12.3077 101.385 15.1673 96.0429C15.3216 96.0802 15.4737 96.1262 15.6227 96.1808C15.7251 91.4321 15.7373 90.9305 19.3848 88.2704C19.4984 89.4918 18.4275 90.2564 18.1994 91.3407C18.3018 91.4778 18.4387 91.6485 18.5532 91.7743C19.0188 91.7743 23.9783 86.9696 24.0127 86.9118C24.7754 85.8284 23.9327 84.1957 23.9196 84.1846L23.6793 84.4698C23.5546 84.812 23.4001 85.268 23.2576 85.6111C22.1868 85.5319 22.0731 85.5179 21.4688 84.5379C21.2974 84.5155 21.0581 84.4811 20.8868 84.4447C20.5143 84.7878 20.2153 85.2102 19.8624 85.5747C20.071 84.4859 20.3723 83.4168 20.7629 82.3794C20.3904 81.7976 20.3904 81.7976 20.5003 80.8876C19.0104 80.9678 19.0104 80.9677 15.6107 85.7612C14.334 82.1994 18.8251 81.4013 19.3159 78.6507C20.3067 79.1869 20.843 80.2256 21.7369 80.8531C21.8962 80.8074 22.1354 80.7169 22.3068 80.6591C22.1919 80.114 22.0433 79.5765 21.8617 79.0498L21.9409 78.9472C22.6858 78.605 22.6858 78.605 26.513 74.8726C26.581 75.0209 26.661 75.2037 26.729 75.3528C26.9004 75.3976 27.1164 75.4666 27.2877 75.5235C26.7178 77.5663 24.9058 78.9734 24.3927 81.047C24.3583 81.1841 24.3582 81.1841 25.4524 82.896C26.0679 82.6573 26.4897 82.0055 27.2421 82.1314C27.479 82.4613 27.6483 82.8349 27.7402 83.2307C27.8321 83.6265 27.8447 84.0365 27.7775 84.4372C27.9256 84.4139 28.1081 84.3692 28.2431 84.3347C28.4766 83.8245 28.7471 83.3321 29.0523 82.8615C29.5542 82.8615 29.5543 82.8615 30.2489 83.502L30.5684 83.6158H30.5804C33.4978 80.8186 31.1615 78.3085 28.7227 78.2171C28.529 77.9318 28.5291 77.9319 29.6223 70.4558C29.3542 70.2625 29.0395 70.1441 28.7106 70.1127C28.6082 69.9878 28.4489 69.805 28.3381 69.6679C28.462 69.1775 28.6175 68.6982 28.7255 68.2078C25.8072 66.9285 25.8071 66.9285 25.3276 65.8218C24.4616 63.7556 25.6237 61.3248 25.0203 59.2595C25.1075 58.7934 25.2321 58.335 25.3928 57.8889C25.7699 56.645 25.7699 56.2227 25.4273 56.3486C25.2247 56.4603 25.0479 56.6136 24.9085 56.7983C24.769 56.9831 24.6701 57.1952 24.618 57.4208C24.5156 57.8208 24.4365 58.2311 24.3219 58.633C24.1962 59.0786 24.1059 59.1467 24.0147 59.1812C23.9001 59.2269 23.8088 59.3751 23.6729 59.6371C22.6243 62.0688 22.6243 62.0689 21.7574 62.5136C21.2788 62.3271 20.9826 61.8749 20.5263 61.6688C20.5455 61.2104 20.6299 60.7571 20.7769 60.3225C20.7588 60.3298 20.7395 60.3336 20.72 60.3336C20.8225 59.9113 20.8457 59.4777 20.9826 59.0665C21.154 58.6003 21.4725 58.1882 21.6894 57.7313C21.7919 57.515 21.8943 57.2409 21.7918 57.0581C21.7686 57.0124 21.7118 56.9789 21.6774 56.9434C21.4269 56.7271 21.0507 56.8409 20.8002 56.6246C20.7071 56.5444 20.7769 56.3168 20.7769 56.191C20.7353 55.5348 20.6478 54.8824 20.5152 54.2385C20.4919 54.1826 20.4687 54.0903 20.4352 54.0222C20.3328 53.7369 20.207 53.611 20.0822 53.6343C20.0822 53.6446 20.071 53.6446 20.071 53.6446C20.0249 53.6722 19.9848 53.7086 19.9529 53.7518C19.9209 53.795 19.8978 53.8442 19.8848 53.8963C19.4751 54.9126 18.9052 55.928 18.6082 55.4609C18.4489 55.197 18.5746 54.6721 18.1295 54.6218C17.9591 54.6115 17.4777 54.9882 17.23 55.3304C17.1844 55.4096 17.1266 55.501 17.0819 55.5923C17.0258 55.7549 16.9875 55.9232 16.9674 56.094C16.8225 56.8418 16.5689 57.5643 16.2149 58.2385C15.9868 58.7868 15.9179 58.8427 15.6562 59.0367C15.5022 59.1371 15.392 59.2924 15.3481 59.4712C15.3481 59.4712 15.2801 59.9047 15.4514 59.9504C15.4961 59.9728 15.5538 59.9504 15.6218 59.928H15.6451C15.7475 59.8824 15.7475 59.8823 15.8043 59.8926C15.918 60.4865 15.1786 61.4003 14.5277 62.2236C14.2525 63.0314 14.0242 63.8546 13.8442 64.6889C14.2471 65.587 14.3546 66.59 14.1515 67.5532C13.616 69.5169 11.7806 70.7038 11.1651 72.633C10.4695 74.8017 11.153 77.13 10.368 79.2988C10.217 79.582 9.97626 79.807 9.68364 79.9384C8.11086 79.1924 9.72926 73.7845 9.75161 73.7397C9.90751 73.3507 9.99629 72.938 10.0142 72.5193C9.8652 72.4736 9.67148 72.426 9.53552 72.3934C8.4181 72.5799 8.41808 72.5799 7.8482 72.3132C7.73366 70.2936 7.73373 70.2936 7.24392 69.7332C7.09586 69.7677 6.91427 69.8367 6.78856 69.8712C6.89959 68.7783 7.14988 67.7042 7.53344 66.6749C7.49665 66.6999 7.45847 66.7226 7.41898 66.743C-1.33535 89.9359 -1.50518 115.501 6.94031 138.809H6.99805C7.28973 138.904 7.6034 138.908 7.89753 138.821C7.99996 138.914 8.12577 139.048 8.2282 139.14C8.53642 139.117 8.94611 139.094 9.24316 139.06C9.39122 139.015 9.57282 138.957 9.69853 138.922C10.098 139.231 10.098 139.231 11.7471 142.085C12.0553 141.479 12.0554 141.479 11.7593 140.35C13.5034 141.365 14.1645 143.351 15.6227 144.618C15.6907 144.492 15.7829 144.333 15.8508 144.207C16.2332 144.575 16.5912 144.968 16.9226 145.383C16.9654 145.403 17.0115 145.414 17.0586 145.417C17.6061 145.783 18.0056 146.319 18.5187 146.723C18.5187 146.574 18.529 146.38 18.529 146.257C18.8358 146.187 19.137 146.096 19.4303 145.982C19.4871 145.423 19.3562 144.861 19.0579 144.384L19.0691 144.304C19.0803 144.145 19.1036 143.939 19.1259 143.79C22.4205 148.117 22.4204 148.492 22.3747 149.748C22.4883 149.725 22.4428 150.011 22.468 150.137C22.8513 150.931 23.1789 151.751 23.4485 152.591C22.9233 153.515 22.7966 153.732 23.1746 154.736L26.4571 160.424C28.5057 162.581 31.3133 163.79 33.3424 165.97C35.2886 168.242 37.8316 169.921 40.6829 170.819C41.526 171.039 42.2991 171.471 42.929 172.074C43.3946 172.496 43.3945 172.496 48.5254 178.979C49.6875 180.463 54.0083 184.766 54.0418 184.789C60.6197 191.078 60.6197 191.078 69.6588 196.797C84.853 204.843 87.9417 202.891 87.965 202.857L87.8515 202.515C79.589 200.186 79.589 200.186 78.8375 199.833Z" fill="white"/>
<path opacity="0.6" d="M77.128 3.88327C77.3217 3.79003 77.5004 3.72291 77.6978 3.64459C77.6679 3.63553 77.6405 3.61955 77.6178 3.59795C77.4697 3.52895 77.4129 3.54109 77.0143 3.62035C77.0702 3.58678 77.1279 3.5644 77.1838 3.5271C74.4492 4.2581 71.7631 5.09881 69.1254 6.04924C69.1345 6.05055 69.143 6.05481 69.1496 6.06136C69.1142 6.14155 69.0695 6.19844 68.7044 6.46138C68.7044 6.46138 68.6924 6.46137 68.6924 6.47256C68.5053 6.65901 68.2945 6.82013 68.0656 6.95182C67.9077 7.0011 67.7552 7.06605 67.6102 7.14574C67.7127 7.07768 67.8151 7.00868 67.9287 6.94061C67.9018 6.92059 67.8819 6.89251 67.8719 6.86043C67.8599 6.86242 67.8483 6.86621 67.8375 6.87164C67.746 6.91113 67.6616 6.96494 67.587 7.03107C67.4837 7.11126 67.4278 7.22502 67.3365 7.3052C67.1828 7.43943 67.0191 7.56162 66.8467 7.6707C66.7778 7.71639 66.6987 7.76395 66.641 7.80777C66.6521 7.79658 66.6753 7.75089 66.6986 7.73877C66.6409 7.77327 66.5497 7.80775 66.4808 7.85344C66.6408 7.68627 66.8121 7.53049 66.9938 7.38724C66.9482 7.37512 66.9482 7.37512 66.9482 7.38724H66.938C66.8803 7.39843 66.801 7.42175 66.7321 7.43294C66.7545 7.41056 66.7545 7.41055 67.8608 6.59936C67.8119 6.59088 67.7623 6.58745 67.7128 6.58911C67.7016 6.57699 67.7016 6.57699 67.6895 6.58911C67.6671 6.57699 66.4351 7.2735 65.0225 8.12945C65.0905 8.01477 65.0905 8.01476 65.6958 7.51312C65.6509 7.4783 65.6089 7.43996 65.5701 7.39845C64.1556 7.96908 62.7764 8.563 61.3973 9.17932C61.3871 9.19051 61.375 9.20172 61.3629 9.19053C61.1012 9.36116 60.9197 9.48701 60.794 9.58958C58.466 10.9826 55.7441 11.6334 53.7485 13.6194C53.8987 13.6512 54.0534 13.6547 54.2048 13.6297C53.9655 13.8013 53.7039 13.9495 53.4748 14.1211C53.6005 14.0642 53.7719 14.0073 53.8864 13.9495C51.6059 16.0502 48.6084 17.1346 46.2599 19.171C46.2832 19.2278 46.3288 19.3071 46.353 19.3649C46.3156 19.447 46.2737 19.527 46.2274 19.6045C46.2942 19.6308 46.3589 19.6619 46.4211 19.6978C46.5614 19.6544 46.6986 19.6014 46.8317 19.5393C46.3307 20.1435 46.0449 20.1658 45.6212 19.984C44.4004 20.6572 43.3416 22.9966 43.3416 23.0199C43.5577 23.1794 43.5577 23.1794 43.9339 23.0656C43.9642 23.0552 43.9953 23.0474 44.027 23.0423C44.0468 23.0438 44.0666 23.0403 44.0847 23.0321C44.095 23.0321 44.1182 23.0199 44.1294 23.0199C44.1467 23.0103 44.1665 23.0061 44.1862 23.0078C44.1983 23.0078 44.2206 22.9966 44.2318 22.9966C44.243 22.9966 44.2663 22.9854 44.2784 22.9854H44.3119C44.3259 22.9776 44.3416 22.9737 44.3575 22.9743H44.3687C44.6881 22.8027 44.9618 22.6013 45.2812 22.426C45.3492 22.4717 45.4061 22.5062 45.4675 22.5397C45.609 22.4843 45.7432 22.4117 45.867 22.3234C45.6807 22.6199 45.4675 22.8829 45.2738 23.1682C45.5736 22.9631 45.8592 22.7378 46.1286 22.494C46.2543 22.5295 46.4248 22.5975 46.5393 22.6432C46.5849 22.9742 45.8214 24.5724 44.0894 26.9463C43.3863 28.1291 42.794 29.3745 42.3201 30.6666C42.5521 30.6432 42.7862 30.6548 43.0147 30.7011C43.038 30.8876 43.0828 31.1347 42.5371 31.3631C42.5138 31.3743 40.3479 32.8353 40.7473 34.0568C40.8041 34.0689 40.8842 34.0913 40.9513 34.1025C41.0738 33.8844 41.2588 33.708 41.4823 33.5962C41.7059 33.4843 41.9578 33.4421 42.2055 33.475L42.2987 33.6008C38.9241 37.1841 38.924 37.1841 38.5134 38.5761C36.9406 43.8153 36.8838 46.5547 38.3532 46.7366C38.4789 46.7599 38.6391 46.6433 38.7415 46.5659C39.0041 46.8289 38.9007 47.296 39.2658 47.4983C40.44 47.4182 40.2687 48.8335 40.8851 49.393C41.1244 49.1189 41.2576 48.9594 41.4997 47.8079C41.5307 47.6301 41.5727 47.4545 41.6254 47.282C41.8415 46.6433 42.686 46.6098 42.9021 45.9934C43.1181 45.3771 42.4235 44.8746 42.7317 44.2573L45.2952 40.1268C46.2999 38.7226 46.2999 38.7225 46.3335 38.6992C47.7926 37.6382 49.8441 37.5468 50.9383 35.8918C51.7707 34.6246 51.7707 34.6246 55.7366 32.6041C56.3978 32.3645 56.3978 32.3645 57.4007 31.4741C57.7359 31.164 58.0987 30.8853 58.4846 30.6414L58.9967 30.288C59.4074 30.0475 59.4074 30.0475 59.5322 29.7855C59.2706 29.5682 58.9735 29.4078 58.6895 29.2148C58.6783 29.1346 58.6429 29.02 58.6326 28.9295C58.749 28.7976 58.8833 28.6824 59.0313 28.5873C59.1104 28.6321 59.2026 28.6899 59.2706 28.7235C60.604 29.7277 61.0482 28.2899 61.4821 26.8978C61.3156 26.8007 61.1344 26.7311 60.9457 26.6917C60.8666 26.4409 60.8666 26.4409 62.2001 24.8661C62.0865 24.6498 61.9375 24.3412 61.8276 24.1127C64.8493 22.8801 65.5328 21.6708 65.6687 21.0656C65.5074 20.9353 65.3315 20.8242 65.1445 20.7346C65.6343 20.3691 66.3187 20.6311 66.7974 20.2087C66.7974 20.2087 67.128 19.8787 66.6372 19.4209C65.9761 19.5467 65.9853 19.1934 65.9853 18.8969C66.7525 18.3161 67.4691 17.671 68.1271 16.9686C68.034 16.991 67.9213 17.0022 67.8412 17.0246C68.02 16.6966 68.2556 16.403 68.5369 16.1574C68.3208 16.1118 68.0247 16.0437 67.7919 15.998C67.7472 15.9411 67.6783 15.8609 67.6326 15.7919L71.1432 12.1621C70.9721 12.1634 70.8025 12.195 70.6423 12.2553C70.904 11.3071 71.998 11.1253 72.4199 10.3262C72.3697 10.2613 72.3162 10.1991 72.2597 10.1397C73.7496 8.69074 75.8625 8.19938 77.3897 6.79518C77.5109 6.67842 77.6011 6.53325 77.6522 6.3728C77.3785 5.98492 77.1047 5.60916 74.5859 7.1728C74.5859 7.01243 74.5746 6.80731 74.5635 6.64693C74.3577 6.79518 74.164 6.96674 73.9703 7.1038H73.9601V7.11498C72.9107 7.7313 72.0204 8.57608 71.0073 9.22689C71.0408 8.97514 71.0641 8.7812 73.1844 7.37699C73.6963 7.06865 74.1671 6.69677 74.5859 6.27022C74.5291 6.23665 74.4611 6.17698 74.3922 6.13409C73.8903 6.4306 73.3892 6.75042 72.8761 7.0348C72.8072 7.0693 72.7169 7.10379 72.648 7.13829C72.6815 7.01241 72.9209 6.81848 73.1611 6.62454C72.8194 6.67023 72.6956 6.69261 72.568 6.71778C72.4404 6.74296 72.2942 6.75323 72.1582 6.78773C71.9189 6.78773 71.7485 6.79795 70.0035 7.56346C70.402 6.92383 73.0251 6.36532 73.2747 6.34201L73.5028 6.30752H73.5485C74.348 6.10174 75.1098 5.77034 75.8057 5.32569L76.0795 5.17744L76.2275 5.00683C76.2765 4.82657 76.3145 4.64347 76.3412 4.45856C76.5581 4.33362 76.8431 4.16206 77.06 4.03618C76.9809 4.02271 76.901 4.01524 76.8207 4.01382C76.9173 3.96693 77.0161 3.92491 77.1169 3.88793L77.128 3.88327Z" fill="white"/>
<path opacity="0.6" d="M29.7634 29.4248C29.7634 29.4233 29.764 29.4217 29.7651 29.4207C29.7662 29.4196 29.7677 29.4189 29.7692 29.4189L29.7537 29.4335L29.7634 29.4248Z" fill="white"/>
<path opacity="0.6" d="M78.6746 3.34055C78.4344 3.39929 78.2248 3.53731 77.9902 3.60444C78.0461 3.53265 78.1382 3.51118 78.1968 3.46829C78.1885 3.46829 78.183 3.46829 77.9557 3.56153C77.9976 3.53542 78.0581 3.50092 78.1047 3.46829L78.0582 3.49347L77.9846 3.48789L77.7052 3.61281L77.6168 3.60444C77.5492 3.64093 77.4767 3.66761 77.4016 3.68369V3.66969L77.4222 3.65572C77.3788 3.68346 77.3337 3.70836 77.2871 3.7303C77.2217 3.77254 77.1593 3.8196 77.1008 3.87109C77.1055 3.87762 77.1223 3.88136 77.1223 3.88136C77.146 3.88059 77.1696 3.88216 77.193 3.88603L77.2601 3.91585C77.521 3.89116 77.7755 3.82011 78.0116 3.70605C78.1502 3.64636 78.293 3.59713 78.439 3.55874C78.4669 3.55633 78.4945 3.55197 78.5218 3.54568L78.9167 3.3471C78.9168 3.34389 78.9179 3.34078 78.9197 3.33813C78.9215 3.33549 78.924 3.3334 78.9269 3.33216V3.32285C78.8424 3.31838 78.7577 3.32431 78.6746 3.34055Z" fill="white"/>
<path opacity="0.6" d="M103.816 4.67205C103.858 4.58515 103.878 4.48902 103.874 4.39234C103.876 4.36673 103.874 4.34106 103.869 4.31588H103.816C103.797 4.31588 103.781 4.31588 103.763 4.31588C103.758 4.31588 103.745 4.30934 103.738 4.30934C103.649 4.30291 103.56 4.32126 103.48 4.36238C103.4 4.4035 103.333 4.4658 103.287 4.54244C103.255 4.58788 103.213 4.62561 103.165 4.65287C103.117 4.68014 103.063 4.69624 103.007 4.70002C102.542 4.73639 102.272 4.26926 101.826 4.27858C101.837 4.30376 101.853 4.34012 101.865 4.37183C101.914 4.66367 101.758 4.75036 101.479 4.80724C101.354 4.66365 101.17 4.58255 101.037 4.44828C100.953 4.45668 100.851 4.46784 100.767 4.47344C100.815 4.66828 100.891 4.85496 100.993 5.02731C101.004 4.98255 101.01 4.93407 101.023 4.89024C101.22 5.335 101.31 5.53452 101.503 5.6604C101.753 5.78386 102.021 5.86483 102.298 5.90002C102.538 5.97843 102.773 6.07476 102.999 6.18815C103.263 6.28087 103.547 6.29575 103.819 6.23103C103.953 6.21052 104.103 6.18535 104.285 6.15178C104.147 5.93919 103.953 5.76856 103.819 5.56064L103.816 4.67205Z" fill="white"/>
<path opacity="0.6" d="M103.825 8.05853C103.522 7.66972 103.066 7.53172 102.234 7.2781C102.182 7.2706 102.132 7.25045 102.089 7.21937C101.692 6.88371 101.643 6.28697 101.207 5.96902C100.956 5.78902 100.659 5.68307 100.351 5.66318C100.007 5.62309 99.9719 5.57929 99.8853 5.31262C99.8388 5.315 99.7926 5.31997 99.7466 5.32753C99.6442 5.34805 99.6442 5.34803 98.8266 5.57927C98.8946 5.74058 98.8881 5.91961 98.9663 6.07532C98.863 6.01584 98.7631 5.95045 98.6673 5.8795C98.4345 6.14803 98.3517 6.49955 98.0946 6.7485C97.9673 6.84258 97.8124 6.89175 97.6542 6.88836C97.7622 7.05339 97.7622 7.0534 98.8526 7.00958C99.4113 6.9844 99.8303 7.25574 99.8769 7.67439C99.8862 7.73034 99.8769 8.04268 99.0621 8.41564C99.036 8.42496 99.0361 8.46879 99.0296 8.50049C99.0566 8.55177 99.0622 8.55366 99.1562 8.55179H99.1627L99.1069 8.63571C99.6907 8.59188 99.93 8.56856 100.338 8.53685C99.8573 9.01704 99.7857 9.28932 100.001 9.79655C100.265 9.82057 100.53 9.82554 100.795 9.81146C100.744 10.0184 100.627 10.218 99.782 10.2124C100.009 10.7856 100.375 11.2929 100.847 11.6884C101.67 11.4674 101.863 11.0889 101.836 9.79655C101.815 8.84922 101.872 8.6562 102.237 8.41564C102.663 8.841 103.007 9.34217 103.251 9.89352C103.257 9.96131 103.277 10.0271 103.309 10.0869C103.342 10.1467 103.386 10.1993 103.439 10.2415C103.493 10.2836 103.554 10.3144 103.62 10.332C103.686 10.3496 103.754 10.3536 103.821 10.3439C103.888 10.3503 103.956 10.3422 104.019 10.3201C104.082 10.2981 104.14 10.2626 104.188 10.2161C104.237 10.1697 104.274 10.1133 104.299 10.0508C104.324 9.9884 104.335 9.92136 104.331 9.85434C104.34 9.61347 104.313 9.3726 104.249 9.14012C104.18 8.75528 104.036 8.38778 103.825 8.05853Z" fill="white"/>
<path opacity="0.6" d="M94.3615 49.7053C94.6762 49.6839 94.99 49.6512 95.3104 49.6204C95.2417 49.5708 95.1638 49.5353 95.0813 49.5161C94.9988 49.4969 94.9134 49.4943 94.8299 49.5086C94.6613 49.5392 94.5014 49.6063 94.3615 49.7053Z" fill="white"/>
<path opacity="0.6" d="M77.3764 36.2125C77.2107 36.179 77.2107 36.179 76.7414 36.7785C76.6482 36.8717 76.6482 36.8717 75.9899 37.0853C75.528 37.3303 75.0434 37.5295 74.5429 37.6801C74.1788 37.7221 73.9255 37.3929 73.5717 37.3864C72.9198 37.3864 72.4113 37.8909 71.7567 37.8657C71.657 37.861 71.6571 37.861 70.8572 37.5478C70.6255 37.4796 70.4015 37.3877 70.1886 37.2736C70.0023 36.9463 69.9251 36.8074 69.723 36.8177C69.7165 36.8177 69.7099 36.8177 69.7053 36.8177C69.4259 36.9053 69.2797 37.0293 68.8309 37.765C68.7126 37.9729 68.7126 37.9729 67.7591 38.6573C67.0576 39.5046 67.2588 39.8856 68.3626 39.8005C68.4141 39.7894 68.4674 39.7895 68.5189 39.8006C68.5704 39.8117 68.6189 39.8336 68.6613 39.8649C68.7037 39.8962 68.739 39.9361 68.7649 39.9821C68.7907 40.028 68.8066 40.0789 68.8113 40.1314C68.9836 40.1986 69.2397 40.0876 69.3151 40.3282C69.222 40.4774 69.1754 40.5314 68.6325 40.6834C66.0168 41.4219 67.4221 41.8825 67.5291 41.8676C67.9603 41.7818 68.3336 41.4219 68.8123 41.559L68.9055 42.6209C68.7074 43.124 68.4838 43.6166 68.2358 44.0969C68.3755 44.3161 68.3755 44.3161 70.413 43.2876C70.8646 43.0601 70.9122 43.3202 70.9 43.5757C70.8879 43.8079 70.8721 44.2051 71.307 44.1911L73.6479 43.9375C74.3888 43.657 75.0884 43.2771 75.7273 42.8083C75.84 42.7328 75.8671 42.6872 75.962 42.331C76.0505 41.9263 76.0505 41.9263 76.8699 41.4219C77.0231 41.3109 77.2002 41.2379 77.387 41.2087C77.5738 41.1795 77.7648 41.195 77.9445 41.254C78.0767 41.3137 78.1373 41.3473 78.2527 41.254C78.3682 41.1608 78.3654 41.172 78.7723 40.6126L78.9203 40.0578L79.4874 38.3879C78.9157 37.1254 78.7704 37.0405 77.3764 36.2125Z" fill="white"/>
<path opacity="0.6" d="M10.4407 126.449C10.2945 126.713 9.84659 127.521 10.802 129.646C10.9175 129.91 11.1344 130.392 12.0964 130.13C12.7249 129.956 13.225 129.527 13.835 129.32C14.3471 129.144 14.8993 129.08 15.4133 128.88C15.4766 128.857 15.5388 128.831 15.5995 128.802C15.6991 128.764 15.7854 128.697 15.8477 128.61C15.9101 128.523 15.9458 128.42 15.9506 128.313C15.8947 127.261 12.887 124.866 10.4407 126.449Z" fill="white"/>
<path opacity="0.6" d="M22.1513 129.913C22.0868 129.879 22.0199 129.849 21.9512 129.825C21.8804 129.798 21.7938 129.772 21.7221 129.744C21.5033 129.675 21.264 129.693 21.0377 129.623C20.6038 129.479 20.3012 128.951 19.7471 129.125C19.7024 129.141 19.6593 129.161 19.6185 129.185C19.5897 129.222 19.5394 129.27 19.5077 129.303C19.3019 129.543 19.2144 129.857 19.0114 130.089C18.7321 130.405 18.3093 130.561 18.0802 130.934C18.0355 130.995 18.0014 131.062 17.9796 131.134C17.9536 131.201 17.9322 131.286 17.9136 131.35C17.8829 131.469 17.9713 131.653 17.9443 131.773C17.8921 131.959 17.6975 132.16 17.6537 132.347C17.5988 132.578 17.4545 133.195 18.7013 133.156C19.3297 133.128 19.9498 133.003 20.5395 132.783C20.5959 132.75 20.6452 132.707 20.6848 132.655C20.9576 132.375 20.898 131.927 21.1662 131.638C21.3726 131.477 21.5906 131.332 21.8181 131.204C22.1272 131.061 22.4038 130.856 22.6309 130.602C22.7287 130.381 22.4205 130.053 22.1513 129.913Z" fill="white"/>
<path opacity="0.6" d="M166.62 125.975C166.34 126.007 166.341 126.007 165.255 126.643C162.811 125.033 162.811 125.033 159.834 120.346C159.961 119.88 159.984 119.391 159.902 118.915C156.617 117.458 157.922 113.436 155.712 111.371C154.707 110.04 154.938 108.276 154.168 106.861C154.168 106.837 150.474 99.5563 149.884 98.7265C149.459 98.1372 148.425 98.127 147.924 98.127L147.637 98.1372H147.571C147.28 98.258 147.028 98.4583 146.845 98.7153C144.766 98.815 144.766 98.815 135.391 96.1978C135.183 96.4085 134.9 96.6957 134.69 96.913C134.292 96.8104 134.292 96.8104 132.758 97.7978C132.523 98.9055 133.174 100.156 132.212 101.143C129.588 100.051 129.588 100.051 129.479 100.086L129.228 100.049C125.037 98.222 125.038 98.222 123.427 98.0085C123.168 98.0234 123.162 98.0234 123.147 98.0234H123.122C123.119 98.0235 123.116 98.0242 123.114 98.0257C123.111 98.0272 123.109 98.0293 123.107 98.0319H123.063C123.058 98.0384 123.042 98.0383 123.041 98.0383H122.996C122.77 97.9535 122.475 97.8519 122.251 97.7801C121.169 95.5032 121.169 95.5031 119.146 94.263C117.543 93.2943 119.374 91.381 118.08 90.3283C117.725 90.0393 117.725 90.0393 113.029 90.2845C110.089 91.0994 106.731 90.3554 104.008 91.9955C103.531 92.2824 103.093 92.6303 102.705 93.0304C100.117 95.685 99.9112 95.5479 97.8915 94.2285C96.2041 93.1097 96.2041 93.1096 93.1545 95.4211C93.0229 95.5788 92.9278 95.7635 92.8756 95.9622C92.8235 96.1609 92.8157 96.3687 92.8528 96.5708L80.3823 114.984C80.009 115.357 79.7289 115.814 79.565 116.316C79.4011 116.818 79.3579 117.352 79.439 117.874C79.5051 119.657 80.8144 121.016 81.0696 122.734C81.3973 124.932 79.5647 127.07 80.9177 129.293C81.4215 130.133 81.4215 130.133 94.6192 138.431C94.993 138.615 95.41 138.692 95.8247 138.655C96.2394 138.618 96.636 138.468 96.9714 138.221C96.9903 138.212 97.0074 138.199 97.0218 138.183C97.0516 138.164 100.698 136.214 102.649 137.579C103.146 137.416 103.633 137.223 104.107 137.001C106.282 136.005 108.28 134.561 110.774 134.346C111.037 134.329 111.037 134.329 113.765 136.624C113.932 136.611 114.101 136.608 114.261 136.6C114.143 136.652 114.017 136.683 113.888 136.693C115.305 137.363 117.183 136.273 118.352 137.869C118.761 138.443 119.001 139.122 119.043 139.827C118.905 140.701 117.925 141.039 117.714 141.868C117.914 143.227 118.173 143.673 119.753 144.416C121.62 145.296 123.734 149.802 123.515 151.253C123.329 152.546 125.577 153.825 124.192 154.895C122.029 156.573 121.664 160.925 121.667 160.955C121.893 161.769 122.97 161.648 123.242 162.403C123.323 162.615 123.369 162.839 123.378 163.065C123.378 163.145 123.37 163.261 123.378 163.345C123.418 163.571 123.569 163.856 123.605 164.084C123.78 165.017 124.843 165.663 124.443 166.771C124.259 167.166 124.184 167.604 124.226 168.038L126.147 172.286C126.175 172.62 126.018 172.951 126.054 173.292C126.148 173.343 126.262 173.422 126.347 173.467C126.12 174.006 126.121 174.006 127.318 175.831C126.628 177.8 126.628 177.8 127.667 178.081C127.771 178.458 127.9 178.828 128.051 179.189C128.182 179.211 128.316 179.215 128.447 179.199C129.404 179.04 129.95 178.07 130.903 177.885C131.567 177.759 131.965 178.565 132.644 178.392C132.847 178.339 134.693 177.529 134.911 177.407C137.836 175.776 138.382 174.99 140.219 172.39C140.954 171.457 141.628 170.477 142.236 169.456C142.482 168.131 143.833 168.337 144.599 167.746C146.94 165.954 146.275 162.223 149.118 160.753C149.538 159.417 151.147 159.891 151.835 158.96H151.826C152.449 158.508 153.13 157.918 153.13 157.916C153.19 157.823 153.25 157.708 153.296 157.623C153.889 156.549 153.675 155.25 154.277 154.178C154.813 153.225 156.083 152.947 156.462 151.839C154.364 150.14 153.097 149.116 155.759 144.528C156.327 143.594 157.117 142.815 158.058 142.26C158.945 141.601 159.753 140.843 160.468 140.001C161.474 139.099 161.753 137.484 163.302 137.098C163.954 136.925 165.378 135.495 166.223 134.587H166.491C166.523 134.445 166.563 134.305 166.61 134.167C166.784 133.981 166.889 133.848 166.897 133.845C166.838 133.828 166.784 133.818 166.725 133.797C167.872 130.636 171.209 128.904 172.307 125.705C172.331 125.519 172.344 125.332 172.345 125.145C171.741 124.825 171.741 124.825 166.62 125.975Z" fill="white"/>
<path opacity="0.6" d="M137.108 4.64209C137.777 4.87053 138.451 5.11391 139.137 5.33676L137.108 4.64209Z" fill="white"/>
<path opacity="0.6" d="M151.282 10.5699V10.5638H151.276L151.282 10.5699Z" fill="white"/>
<path opacity="0.6" d="M151.288 10.5696H151.281C151.292 10.5719 151.303 10.5757 151.313 10.5808L151.291 10.5696H151.288Z" fill="white"/>
<path opacity="0.6" d="M151.834 10.8688C152.335 11.1429 152.895 11.4404 153.534 11.7826C152.804 11.3602 152.701 11.3024 151.345 10.6068L151.834 10.8688Z" fill="white"/>
<path opacity="0.6" d="M200.633 133.12C200.378 133.393 200.163 133.7 199.994 134.033C199.732 134.686 199.766 135.403 199.47 136.031C199.272 136.428 199.104 136.84 198.969 137.263C198.945 137.356 198.9 137.491 198.866 137.595C198.555 139.152 198.334 140.725 198.205 142.308C197.977 143.073 197.635 143.791 197.475 144.568C197.453 144.987 197.396 145.403 197.304 145.812C196.962 146.816 196.335 147.684 195.993 148.688C196.067 148.66 196.131 148.613 196.18 148.551C196.192 148.584 196.199 148.619 196.201 148.654C196.681 148.038 196.805 147.239 197.318 146.656C197.318 146.68 197.132 147.638 196.999 148.46C198.048 146.291 199.024 144.081 199.929 141.829C199.931 141.809 199.935 141.79 199.941 141.772C200.005 141.452 200.047 141.127 200.065 140.801C200.017 140.815 199.968 140.823 199.917 140.824C200.077 139.945 200.157 139.053 200.328 138.176C200.362 137.925 200.476 136.871 200.476 136.852C200.498 136.555 200.29 136.304 200.328 135.997C200.396 135.141 200.715 134.318 200.783 133.462C200.795 133.2 200.76 133.155 200.715 133.109C200.687 133.107 200.659 133.11 200.633 133.12Z" fill="white"/>
<path opacity="0.6" d="M136.974 4.59639C137.019 4.60878 137.063 4.62402 137.107 4.64206L136.902 4.57214L136.974 4.59639Z" fill="white"/>
<path opacity="0.6" d="M146.754 23.0843C146.641 23.1151 146.638 23.198 146.661 23.3444C146.625 23.3037 146.592 23.2611 146.561 23.2167C146.869 23.7972 147.238 24.343 147.663 24.8447C147.675 24.8447 148.594 25.1831 148.716 24.8848C148.771 24.7542 148.632 24.5202 148.543 24.4027C148.166 23.8759 147.165 23.0442 146.754 23.0843Z" fill="white"/>
<path opacity="0.6" d="M150.962 22.0324C149.119 20.7383 147.436 19.2297 145.948 17.5383C145.865 17.4401 145.788 17.3367 145.717 17.2287C145.351 16.6189 145.423 16.4772 145.584 16.1592C145.592 16.1421 145.595 16.1237 145.595 16.1051C145.595 16.0865 145.592 16.0682 145.584 16.0511C145.212 15.4273 144.475 15.1429 144.114 14.5089C144.075 14.4192 144.062 14.3201 144.079 14.2235C144.129 13.7368 144.129 13.7368 143.228 12.452C143.639 12.3149 144.018 12.6245 144.416 12.5303L142.677 10.9946C142.522 10.8893 142.523 10.8893 142.51 10.7998C142.812 10.7569 143.096 10.921 143.4 10.8249C143.236 10.6832 143.021 10.6114 142.897 10.4175C142.945 10.3046 143.065 10.245 143.105 10.1303C142.874 9.83193 142.591 9.58205 142.36 9.28275C141.553 8.67974 140.64 8.23408 139.668 7.96899C139.451 8.08275 139.221 8.00255 138.994 8.03518C139.289 8.28227 139.702 8.34753 139.943 8.66921L140.017 9.43566C138.733 9.53357 138.733 9.53357 138.546 9.68089C138.76 10.4268 139.369 10.9676 139.644 11.679C139.518 11.7881 139.351 11.9382 139.226 12.052C139.498 12.6916 140.43 12.5863 140.638 13.3098C140.795 13.7421 140.974 14.1663 141.174 14.5806C141.417 14.8312 141.678 15.0643 141.954 15.2781C142.513 15.6505 142.944 16.1882 143.185 16.8166C143.008 17.0292 142.757 16.9033 142.542 16.9601C142.53 16.9801 142.516 16.9988 142.5 17.0161C142.873 17.5858 143.566 17.6902 144.011 18.135C144.007 18.1583 143.989 18.1993 143.983 18.2226C143.905 18.2469 143.816 18.2655 143.736 18.2991C143.667 18.4906 143.637 18.6943 143.648 18.8977C143.659 19.1011 143.711 19.3002 143.801 19.483C143.891 19.6658 144.016 19.8286 144.17 19.9617C144.325 20.0947 144.504 20.1952 144.698 20.2571C144.704 20.2665 145.821 20.8697 145.882 20.8856C146.441 21.1578 147.099 21.1746 147.652 21.4702C148.336 21.92 149.052 22.3207 149.793 22.6693C150.426 22.8513 151.089 22.897 151.74 22.8035C151.749 22.7709 151.75 22.7252 151.76 22.6898C151.53 22.4303 151.261 22.2085 150.962 22.0324Z" fill="white"/>
<path opacity="0.6" d="M194.905 128.378C194.332 128.756 193.907 129.319 193.702 129.974C193.676 130.056 193.651 130.13 193.626 130.215C193.393 131.051 193.26 131.913 193.23 132.781C193.198 132.983 193.19 133.154 193.313 133.218C193.696 133.414 194.114 132.411 194.445 131.375C194.453 131.35 194.462 131.331 194.471 131.309C194.473 131.296 194.477 131.282 194.482 131.269C194.66 130.721 194.814 130.15 194.925 129.737C195.236 128.582 195.156 128.365 194.905 128.378Z" fill="white"/>
<path opacity="0.6" d="M151.834 10.8688C152.335 11.1429 152.895 11.4404 153.534 11.7826C152.804 11.3602 152.701 11.3024 151.345 10.6068L151.834 10.8688Z" fill="white"/>
<path opacity="0.6" d="M158.413 15.515C158.438 15.5513 158.461 15.5893 158.48 15.6287C158.304 15.648 158.126 15.6324 157.956 15.583C157.935 15.6645 157.908 15.7445 157.876 15.8227C159.645 17.6492 162.334 18.1733 163.929 20.2395C162.747 19.7202 161.618 19.0899 160.555 18.357C159.903 17.9113 159.894 17.9113 159.563 17.9113C159.532 17.9937 159.505 18.0777 159.483 18.163C159.507 18.2087 159.507 18.2087 160.999 19.6465C159.403 18.825 158.606 16.8847 156.645 16.5695C157.603 17.5849 159.096 18.0073 159.78 19.3313C159.757 19.4003 159.735 19.4917 159.712 19.5598C159.996 19.902 160.384 20.3355 160.68 20.6786L161.945 21.5122C165.262 25.2558 165.867 25.929 166.459 25.7239C166.505 25.7808 166.574 25.861 166.619 25.9178C166.65 25.8399 166.677 25.7602 166.698 25.6791C166.975 25.7283 167.238 25.8401 167.465 26.0063C167.692 26.1724 167.879 26.3883 168.01 26.6376C167.737 26.66 167.736 26.66 167.28 26.4773L167.187 26.4428L167.154 26.7169C167.928 27.7099 169.182 28.1892 169.843 29.2959C169.684 29.3193 169.47 29.3304 169.307 29.3416C169.501 29.57 169.695 29.7985 169.877 30.0269C170.128 30.3813 170.447 30.688 170.698 31.0311C170.641 31.0768 170.55 31.1337 170.482 31.1794C170.429 31.4762 170.465 31.7819 170.584 32.0586C170.424 32.0698 170.185 32.0819 170.025 32.1043C169.775 32.1155 167.803 31.3966 168.144 30.8717C168.646 30.8483 169.034 31.488 169.592 31.1001C169.483 30.7174 169.305 30.3576 169.068 30.0381C168.954 29.5598 168.76 28.6572 166.093 26.2712L165.056 25.2213C164.311 24.674 163.845 23.8413 163.129 23.2698C162.206 22.5509 161.443 21.6371 160.53 20.9071C159.846 20.4287 159.527 19.6185 158.899 19.0814L157.601 17.8693C156.21 17.1159 155.127 15.818 153.474 15.5066C153.419 15.5187 153.338 15.5187 153.281 15.5299C153.275 15.6013 153.291 15.6728 153.326 15.735L153.383 15.804C155.777 18.3215 155.777 18.3215 156.438 18.7942C156.426 18.9089 156.404 19.0562 156.393 19.1672C156.746 19.4564 157.043 19.8082 157.27 20.205C157.177 20.2628 157.054 20.343 156.952 20.411C156.963 20.4455 159.618 24.7933 163.3 25.8665C163.645 25.9134 163.956 26.0945 164.168 26.3705C164.379 26.6464 164.473 26.9948 164.429 27.3397H164.417C163.904 27.0535 163.471 26.6544 162.959 26.3458L162.901 26.3346H162.867C162.735 26.2893 162.605 26.236 162.479 26.1752C162.286 26.0717 161.944 25.901 161.282 25.57L160.986 25.4898C158.353 24.4735 155.913 23.0479 153.304 21.9747L153.235 21.9635H153.213C154.477 23.7099 156.599 24.3374 158.079 25.7863C157.817 25.8208 157.817 25.8209 155.435 24.302C155.591 24.6316 155.79 24.9387 156.028 25.2148C155.982 25.3183 155.925 25.4768 155.88 25.6027L155.72 25.6829C155.458 25.5346 155.458 25.5346 154.261 24.7365C154.153 25.3619 154.107 25.9965 154.123 26.6311L153.976 26.7449C153.11 26.2992 152.711 25.0665 151.469 25.295C150.682 26.5733 150.682 26.5733 150.51 26.6311C150.362 27.0526 150.033 27.3612 149.873 27.7715C150.192 28.4568 150.169 28.4913 149.885 28.9705C150.146 29.4581 150.435 29.9303 150.75 30.385C148.003 30.2488 147.843 29.13 147.741 28.3887C148.049 28.343 148.459 28.2852 148.765 28.2507C148.778 28.1369 148.801 27.9887 148.823 27.8777C146.566 25.8339 145.905 25.9598 144.799 26.1658C144.896 26.4143 145.027 26.6483 145.187 26.8614C145.164 26.9761 145.141 27.1355 145.118 27.2614C145.211 27.3546 145.324 27.4777 145.426 27.5691C145.24 28.2311 145.24 28.2311 146.73 29.6577C147.54 30.2628 147.54 30.274 147.754 30.7644C145.28 31.9766 145.28 31.9766 145.178 32.2489C144.756 33.4927 146.192 34.0204 146.26 35.0684C145.609 35.2736 145.609 35.2736 144.119 34.44L143.07 33.8806C142.675 33.6957 142.258 33.5652 141.828 33.4927L141.532 33.4582C141.395 34.0643 141.713 34.6349 141.726 35.2391C141.292 35.1244 141.292 35.1243 139.956 34.0064C139.009 33.4926 139.203 33.1505 139.523 32.5798C139.374 32.2377 139.374 32.2377 135.977 30.2171C136.07 30.1379 136.171 30.0232 136.251 29.9439C137.528 30.2861 138.474 31.7584 140.059 31.0628C142.589 32.1584 142.589 32.1584 143.568 32.261C143.832 31.93 144.034 31.5533 144.275 31.1989C144.709 30.1947 144.709 30.1947 144.264 28.9966C143.672 27.9355 143.672 27.9356 138.736 25.7332C136.966 24.9351 132.581 23.3248 132.546 23.3024C131.453 22.9295 130.59 23.8731 129.537 23.8274C129.309 23.3369 129.309 23.3369 129.731 22.6749C130.017 22.6292 130.383 22.5369 130.643 22.4689C130.677 22.3439 130.711 22.1835 130.745 22.0586C130.118 21.6586 126.061 20.4269 125.331 20.6768L125.206 20.7234V20.7346H125.194C124.634 20.5631 124.056 20.4522 123.472 20.4036C122.71 20.4036 122.242 20.8372 120.898 22.0353L120.646 22.1835H120.624C120.202 22.37 119.45 22.7654 118.811 23.116C118.172 23.4665 117.614 23.7686 117.614 23.7686L117.569 23.791H117.557C116.254 24.4297 115.358 25.6754 113.926 26.0735V26.0857C113.881 26.2258 113.857 26.372 113.857 26.5192C113.928 26.9505 113.959 27.3875 113.95 27.8246L113.893 27.8479H113.871C112.354 28.0763 112.354 28.0764 112.207 28.7719C112.087 29.0043 112.031 29.2649 112.047 29.5262C112.16 29.5486 112.32 29.5943 112.434 29.6195C112.776 29.5859 112.947 29.5859 113.118 29.5738C113.985 29.4936 114.292 28.3412 115.25 28.4437C115.334 28.8305 115.497 29.1958 115.729 29.5169C115.17 30.1901 114.269 30.2013 113.575 30.6013C112.81 33.6782 111.488 34.5397 110.986 34.8586C110.953 35.791 111.625 36.6843 111.112 37.6326C108.239 38.1463 106.735 40.2349 106.838 41.0218C106.325 41.6046 104.456 43.4526 104.558 44.4233L105.572 48.4326C105.781 48.7018 105.946 49.0023 106.062 49.323C106.648 50.0228 107.284 50.6791 107.965 51.2867C108.239 51.4013 109.828 51.8918 110.633 51.2755C110.696 51.2388 110.751 51.1894 110.794 51.1306C110.838 51.0717 110.868 51.0046 110.885 50.9333C111.637 48.9809 112.536 48.7981 113.484 48.593C114.646 48.3645 114.646 49.7911 115.284 50.3393C115.148 50.7039 115.147 50.7039 115.159 50.7953C115.239 50.8298 115.387 50.8885 115.74 51.8116C115.926 52.0633 115.877 52.4056 116.094 52.6331C117.484 54.1053 117.484 54.1053 117.621 54.7217C117.792 55.4182 117.792 55.4181 119.741 56.0457H119.751C119.937 55.7964 120.048 55.4996 120.072 55.1897C120.117 54.7562 120.128 54.7105 121.211 54.4139C123.206 53.8657 123.423 53.7855 123.503 53.6372C123.678 52.9491 123.685 52.2291 123.525 51.5375C123.445 51.2866 123.503 51.0014 123.354 50.7729C123.115 50.3851 122.51 50.3617 122.442 49.8134C122.317 48.9006 122.629 48.9352 123.161 48.993C123.845 49.0722 123.867 48.9352 123.924 48.593C124.026 48.0568 125.269 46.3328 125.303 45.9822C124.38 45.1953 124.38 45.1953 122.181 44.579C122.112 44.2937 122.055 44.0083 121.986 43.723C121.792 43.3342 121.531 42.9696 121.314 42.5817C121.531 42.1939 121.929 41.9766 122.152 41.5999C122.073 41.4862 121.982 41.3482 121.914 41.2456C122.027 41.144 122.187 41.0181 122.312 40.9155L122.438 40.2181L122.597 39.6586C122.632 39.5449 122.665 39.3967 122.69 39.2932C122.804 39.2829 122.963 39.2829 123.078 39.2708C123.533 38.6666 123.533 38.6666 123.932 38.5174C123.897 37.5924 124.026 37.5468 124.764 37.2848C125.255 36.041 125.255 36.0409 124.857 34.192C126.965 32.4204 128.892 33.0731 128.572 34.8307C128.231 36.6806 126.316 37.3193 125.507 38.8148C125.518 38.8372 126.601 42.7514 126.749 44.1211C126.965 44.1556 127.274 44.2144 127.494 44.247C127.904 44.6966 128.44 45.011 129.033 45.1486C129.067 45.1424 129.101 45.1387 129.136 45.1375H129.216C129.225 45.1364 129.233 45.132 129.238 45.1254H129.272C130.008 45.2293 130.721 45.4572 131.381 45.7995C133.43 46.1071 136.42 42.9575 137.527 45.64C137.079 46.1073 136.517 46.4493 135.897 46.6321C134.838 46.6778 133.766 46.7253 132.683 46.758C131.899 46.6753 131.107 46.7137 130.335 46.8717C129.8 47.1235 129.229 47.2941 128.682 47.5244C128.511 50.0699 132.866 48.8596 132.478 51.3818C130.403 50.1836 130.403 50.1836 129.742 49.9897C129.526 50.8 129.526 50.7999 128.078 51.3594C128.174 51.7652 128.243 52.177 128.284 52.592L128.626 53.2447C128.705 54.0093 128.83 54.786 128.876 55.5618C128.389 55.7404 127.891 55.8889 127.386 56.0065C127.353 56.2126 127.307 56.4727 127.284 56.6806C127.097 56.7487 126.873 56.8522 126.703 56.9202C126.073 56.5098 125.39 56.187 124.674 55.9608C123.693 56.8056 122.383 57.1366 121.401 57.9925C118.701 57.7305 117.231 54.5342 114.231 54.9221L113.992 54.9678C111.385 54.386 111.385 54.386 110.994 55.3678C111.143 55.5272 111.325 55.7324 111.473 55.8927C111.306 56.304 111.052 56.674 110.728 56.9771L110.842 57.1366L110.922 57.2298C111.134 57.538 111.262 57.8959 111.294 58.2685C110.474 58.7245 110.474 58.7245 108.809 58.3366C108.338 58.2694 107.859 58.304 107.403 58.438C106.947 58.5719 106.525 58.8022 106.165 59.1132C106.202 60.0193 106.293 60.9223 106.439 61.8172C105.618 62.7646 105.345 64.0765 104.398 64.9557C104.305 64.9557 104.239 64.9679 104.159 64.9679C103.737 65.0014 103.349 65.0247 102.985 65.0611C102.799 65.324 102.575 65.6671 102.392 65.9291C102.654 66.1342 103.008 66.3953 103.293 66.5818C101.48 67.9179 101.479 67.918 100.739 68.1343C100.682 68.2826 100.602 68.4886 100.545 68.648C100.374 68.6937 100.172 68.7413 99.999 68.7851C99.6116 68.511 99.0976 68.1324 98.7102 67.8527C97.2287 67.5441 97.2621 68.3432 97.3199 69.5525C95.7694 69.5189 95.7694 69.5189 95.3709 70.3058C94.0141 69.9515 94.0141 69.9516 93.4787 70.4653C93.5467 70.8653 93.5467 70.8653 94.7666 72.5166C95.1296 72.5259 95.4925 72.4946 95.8486 72.4233C98.8471 74.5921 98.847 74.5921 99.5994 78.4383C99.0184 78.9399 98.7614 79.6942 98.1971 80.2182C98.0378 80.1847 97.8097 80.1502 97.6384 80.125C97.616 80.0318 90.5147 77.8303 88.3488 81.2206C89.3293 84.291 88.6225 87.5097 89.1924 90.6258C89.3796 90.9901 89.669 91.2918 90.0249 91.4938C91.1182 91.9274 91.5857 90.4094 92.6323 90.6714C93.6473 90.9343 93.773 92.0178 94.4221 92.6238L94.7079 92.7031H94.7759C95.7332 92.4756 96.5656 91.9386 97.5005 91.6299C97.6709 91.6076 97.671 91.6076 97.6821 91.6076H97.7399V91.5964C98.7023 91.5153 99.6272 91.1856 100.424 90.6394C101.221 90.0932 101.863 89.3493 102.287 88.4803C101.991 85.1814 101.991 85.1814 102.447 84.4057C102.606 84.4169 102.82 84.4168 102.983 84.4168C103.187 84.6686 103.187 84.6686 103.199 84.6686H103.212C103.22 84.667 103.228 84.6627 103.234 84.6565H103.327C103.5 84.6347 103.666 84.5768 103.815 84.4863C103.965 84.3959 104.093 84.275 104.192 84.1315C104.319 84.0066 104.466 83.835 104.672 83.6066C105.789 82.6826 106.871 81.6206 106.871 81.6094L107.077 81.2672C107.271 80.5026 107.055 79.7147 107.179 78.9362C111.955 79.3585 111.955 79.3586 112.469 78.8569L112.841 78.6061H112.875C112.894 78.599 112.913 78.5949 112.932 78.594C113.035 78.4914 113.172 78.332 113.274 78.2061C113.252 78.0579 113.228 77.8406 113.206 77.6924C113.331 77.5898 113.501 77.4639 113.639 77.3725H113.707C113.765 77.2364 113.822 77.0303 113.867 76.8821C114.083 76.814 114.368 76.7106 114.574 76.6304C117.126 78.3432 117.126 78.3432 117.181 78.6061C117.773 78.9362 117.773 78.9362 118.082 79.9749C118.4 80.0802 118.745 80.0766 119.061 79.9646C119.439 80.2694 119.78 80.6177 120.076 81.0024L121.022 81.6868L121.627 82.0868L122.265 82.2229L122.698 82.497L123.291 82.7031C125.742 83.491 125.742 83.491 126.483 85.1115C126.14 85.5099 125.705 85.8192 125.216 86.0131C123.727 86.3861 122.144 86.2071 120.692 86.8234V87.3371C122.834 88.3982 122.834 88.3982 123.299 88.2387C123.574 88.5281 123.907 88.7559 124.276 88.9073C124.645 89.0586 125.042 89.1301 125.441 89.1171C125.642 88.8635 125.783 88.5667 125.851 88.25C125.839 88.0793 125.805 87.8276 125.783 87.6448C128.165 85.2709 128.165 85.2709 127.881 83.7194L127.56 83.3073L127.64 83.1255L127.827 82.939C128.738 83.1898 129.491 83.9432 130.527 83.7949L130.596 83.5553L130.493 83.2131L130.197 82.7572L130.151 82.4597L130.184 81.9693L130.048 81.7176L129.797 81.5926L129.285 81.8089C128.122 81.2383 126.607 80.5651 126.607 80.5651L125.215 80.2798C124.919 80.1549 124.52 79.9711 124.235 79.8229C124.087 79.1832 124.008 78.8187 122.412 77.5973C122.388 77.4266 122.366 77.1749 122.342 76.993C121.1 76.9464 121.1 76.9464 120.748 76.7413C120.701 76.1026 120.701 76.1026 121.283 75.201C121.634 75.1964 121.982 75.2624 122.307 75.3949L122.673 75.463C124.108 77.0723 126.24 77.711 127.733 79.2411C129.66 79.7073 129.66 79.7073 131.506 82.7842C131.603 83.0862 131.661 83.3997 131.677 83.7166C132.156 84.5381 132.236 84.5725 132.817 84.8467C132.943 84.7534 133.102 84.6182 133.216 84.5259C134.298 85.7026 134.55 87.3232 135.371 88.6351C136.238 88.1566 137.146 87.7556 138.084 87.4369C138.129 87.2765 138.209 87.0714 138.27 86.912C138.877 86.6477 139.468 86.3466 140.039 86.0103C139.753 85.6776 139.418 85.3892 139.047 85.1544C139.06 84.9828 139.081 84.7665 139.093 84.595C138.728 84.3096 138.261 83.9217 137.897 83.6364C138.021 83.5432 138.193 83.4304 138.318 83.3399C138.671 83.4761 139.139 83.67 139.48 83.8183C140.803 82.5977 143.254 80.3264 143.448 83.5105C143.439 83.856 143.477 84.2012 143.562 84.5362C142.631 84.6957 142.285 84.7413 141.714 86.2145C143.117 88.1194 145.579 88.1083 147.345 89.3633C148.064 89.0836 148.463 88.3488 149.158 88.0169C150.537 88.7367 150.55 88.7926 150.788 89.5087C150.537 89.794 150.196 90.1707 149.944 90.4672C149.956 90.6276 149.979 90.8327 149.99 90.9931C151.666 91.9255 151.928 91.4258 152.532 90.2276C152.269 89.7829 151.787 89.5199 151.563 89.063C153.102 86.8253 154.003 87.6141 154.542 88.0933C154.097 95.9572 152.773 96.2658 150.757 96.7106C150.701 96.8588 150.621 97.064 150.553 97.2122C150.587 97.2579 156.035 104.494 157.072 106.059C157.015 106.245 156.821 106.492 156.9 106.651C157.664 108.478 159.42 109.802 159.545 111.948C159.978 112.426 160.459 112.859 160.982 113.237C160.856 115.12 160.834 115.406 162.201 115.84C162.337 116.248 162.505 116.645 162.702 117.027C162.796 117.164 162.942 117.324 163.045 117.46C163.136 117.631 163.188 117.82 163.198 118.013C163.208 118.207 163.175 118.4 163.102 118.579C162.372 120.737 164.242 121.227 166.613 121.856H166.657C167.924 121.483 169.063 120.759 170.305 120.315H170.374C170.71 120.171 171.034 119.999 171.343 119.802L171.571 119.755H171.605C175.344 118.899 180.633 106.87 180.633 106.767C179.903 106.596 179.903 106.596 178.079 104.986C177.788 105.213 177.517 105.465 177.27 105.74C176.563 105.705 176.563 105.705 175.822 106.379C174.591 106.285 174.591 106.285 173.143 103.434C171.374 102.932 169.861 98.7311 169.861 98.6864C170.43 98.5605 171.024 98.4999 171.582 98.3554C171.984 98.851 172.293 99.4155 172.494 100.022C172.756 100.478 173.133 101.071 173.425 101.505L173.847 101.825L174.462 102.282C174.519 102.35 182.328 106.185 182.499 106.07L188.107 107.064C189.384 107.81 188.87 109.54 189.942 110.409C189.953 110.795 189.919 111.182 189.839 111.56C189.862 111.435 189.987 111.801 190.045 111.914C190.363 112.302 190.477 112.862 190.968 113.126C191.446 112.955 191.446 112.955 192.016 112.133C192.644 113.422 192.506 119.837 192.482 120.134C192.095 121.596 192.389 123.09 192.22 124.574C192.562 126.08 191.809 127.803 193.04 129.142C194.25 128.571 194.328 128.367 194.59 127.738C194.737 127.416 194.852 127.079 194.933 126.734L195.423 126.081C195.503 125.75 195.571 125.419 195.639 125.1L195.868 124.677C196.223 123.926 196.391 123.099 196.358 122.269C196.973 120.364 196.973 120.364 197.338 119.884L197.76 119.438C198.001 119.211 198.265 119.009 198.546 118.834C198.569 118.686 198.591 118.537 198.625 118.378C199.784 116.748 200.835 115.043 201.772 113.276C201.908 113.253 202.114 113.218 202.262 113.196C202.361 113.562 202.426 113.936 202.456 114.314C202.774 114.221 203.201 114.098 203.527 114.018C203.607 114.188 203.607 114.189 203.493 121.585C204.166 121.265 204.166 121.265 204.462 119.851C204.61 120.307 204.61 120.307 203.139 128.604C202.289 131.627 201.69 134.714 201.35 137.835C201.362 137.882 201.362 137.915 201.373 137.95C201.921 136.432 202.421 134.902 202.878 133.349C202.971 131.923 203.516 130.029 204.678 126.01C204.713 126.082 204.737 126.159 204.748 126.239C209.471 105.252 207.547 83.313 199.242 63.4718C190.938 43.6305 176.667 26.8727 158.412 15.528L158.413 15.515Z" fill="white"/>
<path opacity="0.6" d="M147.083 8.55188C147.125 8.56866 147.158 8.59196 147.196 8.60967C147.178 8.60099 147.16 8.5907 147.143 8.57891L147.083 8.55188Z" fill="white"/>
<path opacity="0.6" d="M162.622 150.933C162.55 150.933 162.474 151.004 162.413 151.031C162.198 151.227 161.998 151.439 161.815 151.666C161.536 151.976 161.213 152.407 160.574 153.286C158.921 155.528 158.198 156.456 157.852 156.82C157.702 156.958 157.659 156.936 157.609 156.906C157.362 156.762 157.409 156.213 157.028 156.308C157.004 156.319 156.975 156.339 156.95 156.352C156.913 156.379 156.881 156.414 156.857 156.453C156.85 156.461 156.841 156.466 156.831 156.468C156.693 156.562 156.679 156.735 156.602 156.867C156.151 157.147 155.545 157.078 155.157 157.497C155.094 157.546 155.037 157.602 154.987 157.664C154.376 158.627 154.024 159.731 153.962 160.869C153.971 161.292 153.928 161.715 153.833 162.127C153.732 162.341 153.582 162.528 153.394 162.673C153.142 162.866 152.861 163.026 152.625 163.232C152.446 163.361 152.288 163.519 152.16 163.698L150.656 168.761C150.842 168.976 151.333 169.5 153.162 168.109C153.966 167.491 154.721 166.811 155.418 166.075C156.663 164.397 157.73 162.593 158.6 160.693C158.98 160.034 159.393 159.395 159.837 158.777C159.978 158.675 160.125 158.582 160.277 158.497C160.472 158.399 160.649 158.267 160.799 158.108C161.013 157.921 161.067 157.73 161.246 157.105C161.341 156.711 161.463 156.324 161.613 155.947C161.657 155.935 161.702 155.931 161.747 155.934H161.784C161.819 155.93 161.852 155.922 161.885 155.91C161.909 155.873 161.926 155.832 161.95 155.791C161.969 155.784 161.987 155.784 162.002 155.778C162.55 154.852 162.786 153.762 163.374 152.851C163.657 152.415 162.958 150.913 162.622 150.933Z" fill="white"/>
</g>
</g>
</g>
</svg>
